<?xml version="1.0" encoding="UTF-8"?><svg id="switch" xmlns="http://www.w3.org/2000/svg" version="1.1" width="512" height="512" viewBox="0 0 512 512"><path id="icon" fill="#ffffff" d="M253.9,121.6l-25.5,25.5,86.2,2.5-10.1-78.6-23.3,23.3c-37.8-37.8-90.1-40.7-131.4.5l27.5,27.5c27.5-27.5,53.8-23.4,76.5-.7ZM6,264.8l130.8-130.8,117.8,117.8,117.8-117.8,130.8,130.8-183.2,183.2-65.4-65.4-65.4,65.4L6,264.8ZM58.3,264.8l130.8,130.8,39.3-39.3-39.3-39.3,39.3-39.3-91.6-91.6-78.5,78.5ZM241.5,317.2l78.5,78.5,130.8-130.8-78.5-78.5-130.8,130.8Z"/></svg>