<?xml version="1.0" encoding="UTF-8"?><svg id="themeSwitcher" xmlns="http://www.w3.org/2000/svg" version="1.1" width="512" height="512" viewBox="0 0 512 512"><path id="icon" fill="#ffffff" d="M256,0C114.8,0,0,114.8,0,256s114.8,256,256,256,256-114.8,256-256S397.2,0,256,0ZM105.8,256c0-55.3,44.8-100.1,100.1-100.1h100.1c55.3,0,100.1,44.8,100.1,100.1s-44.8,100.1-100.1,100.1h-100.1c-55.3,0-100.1-44.8-100.1-100.1h0ZM205.9,180.9c-41.4,0-75.1,33.6-75.1,75.1s33.6,75.1,75.1,75.1h100.1c41.4,0,75.1-33.6,75.1-75.1s-33.6-75.1-75.1-75.1h-100.1ZM306.1,205.9c17.9,0,34.5,9.5,43.3,25.1,8.9,15.5,8.9,34.6,0,50.1s-25.4,25.1-43.3,25.1-34.5-9.5-43.3-25.1c-8.9-15.5-8.9-34.6,0-50.1s25.4-25.1,43.3-25.1h0Z"/></svg>